# xmcd
#
# Track frame offsets: 
#        150
#        12515
#        25596
#        39339
#        53005
#        65344
#        77551
#        91187
#        105457
#        117422
#        129416
#        141746
#        154901
#        168700
#        181545
#        195780
#        208038
#        221691
#        234343
#        248513
#
# Disc length: 3484 seconds
#
# Revision: 1
# Processed by: cddbd v1.5.2PL0 Copyright (c) Steve Scherf et al.
# Submitted via: ExactAudioCopy v0.99pb5
#
DISCID=010d9a14
DTITLE=T-Bone Walker - Blues Archive [CD2)
DYEAR=1900
DGENRE=blues
TTITLE0=I'm in an awful mood
TTITLE1=It's a lowdown dirty road
TTITLE2=Don't give me the runaround
TTITLE3=Hard pain blues
TTITLE4=I know your wig is gone
TTITLE5=T-Bone jumps again
TTITLE6=Call it stormy monday but tuesday is just as bad
TTITLE7=She had to led me down
TTITLE8=She's my old time used to be
TTITLE9=Dream girl blues
TTITLE10=Midnight blues
TTITLE11=Long lost lover blues
TTITLE12=Triflin' woman blues
TTITLE13=Long skirt baby blues
TTITLE14=Goodbye blues
TTITLE15=Too much trouble blues
TTITLE16=I'm waiting for your call
TTITLE17=Hypin' woman blues
TTITLE18=So blue blues
TTITLE19=On your way blues
EXTD=
EXTT0=
EXTT1=
EXTT2=
EXTT3=
EXTT4=
EXTT5=
EXTT6=
EXTT7=
EXTT8=
EXTT9=
EXTT10=
EXTT11=
EXTT12=
EXTT13=
EXTT14=
EXTT15=
EXTT16=
EXTT17=
EXTT18=
EXTT19=
PLAYORDER=
